<?xml version="1.0" standalone="no"?>
<!DOCTYPE svg PUBLIC "-//W3C//DTD SVG 20010904//EN"
 "http://www.w3.org/TR/2001/REC-SVG-20010904/DTD/svg10.dtd">
<svg version="1.0" xmlns="http://www.w3.org/2000/svg"
 width="512.000000pt" height="512.000000pt" viewBox="0 0 512.000000 512.000000"
 preserveAspectRatio="xMidYMid meet">
<metadata>
Created by potrace 1.14, written by Peter Selinger 2001-2017
</metadata>
<g transform="translate(0.000000,512.000000) scale(0.100000,-0.100000)"
fill="#000000" stroke="none">
<path d="M2378 4955 c-1 -1 -32 -6 -68 -9 -602 -61 -1171 -359 -1568 -821
-259 -302 -451 -688 -528 -1060 -17 -83 -24 -127 -30 -170 -3 -27 -9 -77 -14
-110 -13 -97 -4 -448 14 -560 22 -140 24 -148 51 -256 164 -655 611 -1220
1215 -1536 219 -115 539 -219 760 -247 25 -3 70 -9 100 -13 134 -17 508 -7
629 17 25 5 62 12 81 14 84 12 275 68 406 119 780 301 1361 1012 1499 1832 3
17 7 44 10 60 21 123 27 464 11 595 -4 36 -10 83 -12 105 -2 21 -16 90 -30
152 -104 464 -314 850 -644 1183 -189 191 -380 330 -615 449 -119 60 -288 131
-313 131 -7 0 -20 4 -30 10 -41 23 -283 81 -402 96 -25 3 -56 8 -70 11 -27 5
-446 13 -452 8z"/>
</g>
</svg>
